<svg fill="none" height="500" viewBox="0 0 500 500" width="500" xmlns="http://www.w3.org/2000/svg"><g clip-rule="evenodd" fill-rule="evenodd"><path d="m128.832 262.013c-3.182-.255-6.399-.385-9.646-.385-65.8246 0-119.18599346 53.361-119.186 119.186s53.3614 119.186 119.186 119.186c65.825 0 119.186-53.361 119.186-119.186 0-5.053-.314-10.032-.925-14.92-56.363-4.513-101.667-48.239-108.615-103.881z" fill="#5d00f5"/><path d="m238.372 119.186c0-65.8246-53.361-119.18599346-119.186-119.186-65.8246-.00000654-119.18599346 53.3614-119.186 119.186-.00000654 65.825 53.3614 119.186 119.186 119.186 3.048 0 6.069-.114 9.06-.339 4.405-58.602 51.185-105.382 109.787-109.787.225-2.99.339-6.012.339-9.06z" fill="#eb236b"/><path d="m365.895 237.447c4.887.611 9.867.925 14.92.925 65.825 0 119.186-53.361 119.186-119.186 0-65.8246-53.361-119.18598771-119.186-119.186s-119.186 53.3614-119.186 119.186c0 3.247.13 6.464.385 9.646 55.641 6.949 99.367 52.253 103.881 108.615z" fill="#4bd0a0"/><path d="m262.633 365.276c-.663 5.085-1.004 10.272-1.004 15.538 0 65.825 53.361 119.186 119.186 119.186s119.186-53.361 119.186-119.186-53.361-119.186-119.186-119.186c-5.267 0-10.453.342-15.539 1.004-6.952 53.397-49.247 95.691-102.643 102.644z" fill="#06f"/></g></svg>